<?xml version="1.0" encoding="utf-8"?>
<!-- Generator: Adobe Illustrator 23.0.2, SVG Export Plug-In . SVG Version: 6.00 Build 0)  -->
<svg version="1.1" id="图层_1" xmlns="http://www.w3.org/2000/svg" xmlns:xlink="http://www.w3.org/1999/xlink" x="0px" y="0px"
	 viewBox="0 0 221.1 200" style="enable-background:new 0 0 221.1 200;" xml:space="preserve">
<style type="text/css">
	.st0{fill:#FF505D;}
	.st1{fill:#FF6174;}
	.st2{fill:#FFCA3E;}
	.st3{fill:#FFB82C;}
</style>
<path class="st0" d="M37.4,40.9h136.1c1.2,0,2.2,1,2.2,2.2v26.5c0,1.2-1,2.2-2.2,2.2H37.4c-1.2,0-2.2-1-2.2-2.2V43.1
	C35.1,41.9,36.2,40.9,37.4,40.9z"/>
<path class="st1" d="M52.8,97.5h105.2c0.8,0,1.5,0.6,1.5,1.5V164c0,0.8-0.6,1.5-1.5,1.5H52.8c-0.8,0-1.5-0.6-1.5-1.5V99
	C51.4,98.2,52,97.5,52.8,97.5z"/>
<path class="st2" d="M67.2,32.7c0,0-16.1-3.1-19.3-4.2l5.7,8.2l-10.3,4.1c0,0,24.1,4.4,50,0.6l-12.5-5.7
	C80.8,35.7,67.2,32.7,67.2,32.7z M78.8,13.2c-8.2-1.5-12.1,1.4-12.1,1.4l-2.2,14.2c0,0,5.8-3.9,12.6-2.2
	c8.9,2.2,20.1,14.8,20.1,14.8v-9.7C97.2,31.7,89.9,15.2,78.8,13.2z M158,36.7l5.7-8.2c-3.2,1.1-19.3,4.2-19.3,4.2l-13.6,3l-12.5,5.7
	c25.9,3.9,50-0.6,50-0.6L158,36.7z M147.1,28.7l-2.2-14.1c0,0-3.9-2.9-12.1-1.4c-11.1,2-18.4,18.5-18.4,18.5v9.7
	c0,0,11.2-12.6,20.1-14.9C141.3,24.8,147.1,28.7,147.1,28.7z"/>
<path class="st2" d="M96.2,30.3h18.5v42H96.2V30.3z"/>
<path class="st3" d="M96.2,98h18.5v67.6H96.2V98z"/>
<path class="st3" d="M83.2,28.7c-8.1-4.6-17.7-3.1-18.7,0.1c-1.1,3.5,4.6,7.2,12.8,11.6c5.5,2.9,20,1.1,20,1.1S91.3,33.3,83.2,28.7z
	 M147.1,28.7c-1.1-3.2-10.6-4.8-18.7-0.1c-8.1,4.7-14,12.7-14,12.7s14.6,1.7,20-1.1C142.5,36,148.2,32.2,147.1,28.7z"/>
</svg>
