<?xml version="1.0" encoding="utf-8"?>
<!-- Generator: Adobe Illustrator 23.0.2, SVG Export Plug-In . SVG Version: 6.00 Build 0)  -->
<svg version="1.1" id="图层_1" xmlns="http://www.w3.org/2000/svg" xmlns:xlink="http://www.w3.org/1999/xlink" x="0px" y="0px"
	 viewBox="0 0 221.1 93.7" style="enable-background:new 0 0 221.1 93.7;" xml:space="preserve">
<style type="text/css">
	.st0{fill:#FF505D;}
	.st1{fill:#FF6174;}
	.st2{fill:#FFCA3E;}
	.st3{fill:#FFB82C;}
</style>
<path class="st0" d="M3.5,44.4h214.2c1.9,0,3.5,1.6,3.5,3.5v41.7c0,1.9-1.6,3.5-3.5,3.5H3.5C1.6,93,0,91.5,0,89.6V47.9
	C-0.1,45.8,1.6,44.4,3.5,44.4z"/>
<path class="st2" d="M50.4,31.5c0,0-25.3-4.9-30.4-6.6l9,12.9l-16.2,6.5c0,0,37.9,6.9,78.7,0.9l-19.7-9
	C71.8,36.1,50.4,31.5,50.4,31.5z M68.6,0.7c-12.9-2.4-19,2.2-19,2.2l-3.5,22.3c0,0,9.1-6.1,19.8-3.5c14,3.5,31.6,23.3,31.6,23.3
	V29.8C97.6,29.8,86.1,3.8,68.6,0.7z M193.2,37.7l9-12.9c-5,1.7-30.4,6.6-30.4,6.6l-21.4,4.7l-19.7,9c40.8,6.1,78.7-0.9,78.7-0.9
	L193.2,37.7z M176.1,25.2L172.6,3c0,0-6.1-4.6-19-2.2c-17.5,3.1-29,29.1-29,29.1v15.3c0,0,17.6-19.8,31.6-23.4
	C167,18.9,176.1,25.2,176.1,25.2z"/>
<path class="st2" d="M96,27.6h29.1v66.1H96V27.6z"/>
<path class="st3" d="M75.5,25.1c-12.7-7.2-27.9-4.9-29.4,0.2c-1.7,5.5,7.2,11.3,20.1,18.3c8.7,4.6,31.5,1.7,31.5,1.7
	S88.3,32.3,75.5,25.1z M176.1,25.2c-1.7-5-16.7-7.6-29.4-0.2s-22,20-22,20s23,2.7,31.5-1.7C168.9,36.6,177.8,30.6,176.1,25.2z"/>
</svg>
